<?xml version="1.0" encoding="utf-8"?>
<!-- Generator: Adobe Illustrator 16.0.0, SVG Export Plug-In . SVG Version: 6.00 Build 0)  -->
<!DOCTYPE svg PUBLIC "-//W3C//DTD SVG 1.1//EN" "http://www.w3.org/Graphics/SVG/1.1/DTD/svg11.dtd">
<svg version="1.1" id="Layer_1" xmlns="http://www.w3.org/2000/svg" xmlns:xlink="http://www.w3.org/1999/xlink" x="0px" y="0px"
	 width="50px" height="50px" viewBox="0 0 50 50" enable-background="new 0 0 50 50" xml:space="preserve">
<g>
	<circle fill="#E0E0E0" cx="25" cy="25" r="25"/>
	<path fill-rule="evenodd" clip-rule="evenodd" fill="#999999" d="M9.1,44.2c0.2,0,0.4-0.1,0.6-0.1c1.3-0.2,2.7-0.4,4-0.7
		c0.7-0.1,1.5-0.3,2.2-0.5c0.1,0,0.2-0.1,0.4-0.1c0.1,0,0.2-0.1,0.2-0.2c0,0,0,0,0,0c0.4-0.5,0.6-1.1,0.6-1.7c0.1-0.7,0.2-1.4,0.2-2
		c0.1-0.7,0.1-1.5,0.1-2.2c0-0.1,0-0.2,0-0.3c0-0.2,0-0.3-0.1-0.4c-0.5-0.5-1-1-1.4-1.6c-0.5-0.8-0.8-1.7-1-2.6
		c0-0.1-0.1-0.3-0.1-0.4c0,0-0.1-0.1-0.1-0.1c-0.3,0.1-0.5,0-0.7-0.2c-0.3-0.3-0.5-0.7-0.7-1.1c-0.3-0.7-0.4-1.4-0.5-2.1
		c-0.1-0.5-0.1-1.1,0-1.6c0-0.4,0.1-0.8,0.3-1.2c0.1-0.1,0.1-0.3,0.2-0.4c0.2-0.2,0.4-0.3,0.7-0.1c0.1,0,0.1,0.1,0.2,0.1
		c0,0,0-0.1,0-0.1c0-0.9,0-1.8,0-2.7c0-1-0.1-1.9-0.1-2.9c0-2,0.4-3.9,1.1-5.7c1.2-2.8,3.3-4.6,6.2-5.4c0.7-0.2,1.4-0.3,2.1-0.4
		c0.7,0,1.3-0.1,2-0.1c1.9,0,3.7,0.4,5.4,1.3c1.7,0.9,2.9,2.2,3.7,3.9c0.5,1.1,0.8,2.2,1,3.4c0.2,1,0.3,1.9,0.3,2.9
		c0,0.8,0,1.7,0,2.5c0,0.8-0.1,1.5-0.1,2.3c0,0.2,0,0.4,0,0.6c0,0,0,0.1,0,0.1c0.1,0,0.1-0.1,0.2-0.1c0.2-0.1,0.4-0.1,0.6,0.1
		c0.2,0.2,0.3,0.5,0.4,0.8c0.2,0.7,0.1,1.4,0.1,2c-0.1,0.9-0.2,1.7-0.6,2.5c-0.1,0.3-0.3,0.6-0.5,0.9c-0.2,0.2-0.4,0.4-0.7,0.4
		c0,0-0.1,0.1-0.1,0.1c-0.1,0.4-0.3,0.9-0.4,1.3c-0.4,1.2-1.1,2.2-2,3.1c-0.3,0.3-0.3,0.3-0.2,0.7c0,0.3,0.1,0.7,0.1,1
		c0,0.7,0.1,1.3,0.1,2c0,0.7,0.1,1.3,0.3,1.9c0.1,0.4,0.3,0.7,0.5,1c0.1,0.2,0.2,0.3,0.3,0.4c0.2,0.2,0.5,0.2,0.8,0.3
		c0.9,0.2,1.8,0.3,2.7,0.5c1.1,0.2,2.2,0.3,3.3,0.5c0,0,0,0,0.1,0c-2.2,1.9-4.7,3.3-7.5,4.3c-2.7,1-5.5,1.5-8.4,1.5
		c-2.9,0-5.7-0.5-8.4-1.5C13.8,47.5,11.4,46.1,9.1,44.2z"/>
</g>
</svg>
